# xmcd CD database file
#
# Track frame offsets:
#	150
#	52200
#	74529
#	108884
#	129355
#	151567
#	172560
#	196803
#	214185
#	227767
#
# Disc length: 3414 seconds
#
# Revision: 0
# Processed by: cddbd v1.4PL0 Copyright (c) Steve Scherf et al.
# Submitted via: CDex 1.50Beta7
#
DISCID=7c0d540a
DTITLE=Various Artist - Third Eye (Rare Jazz/Fusion Gems From The Czechoslovakian Vaults Volume 1)
DYEAR=2000
DGENRE=Jazz
TTITLE0=Klavesova Konklava - The Third Eye
TTITLE1=Jazz Fragment Praha - Anaconda
TTITLE2=Milan Svoboda and Prague Big Band - Proklamation
TTITLE3=SHQ - Stenopes
TTITLE4=Jiri Stivin - The Earth
TTITLE5=Jiri Stivin - The Alchemist's Trip
TTITLE6=Mahagon - Sea Of Peace
TTITLE7=SHQ - The Lost Sheep
TTITLE8=Karel Ruzicka - Life's Little Games
TTITLE9=Jana Koubkova - Nijana
EXTD=YEAR: 2000
EXTT0=
EXTT1=
EXTT2=
EXTT3=
EXTT4=
EXTT5=
EXTT6=
EXTT7=
EXTT8=
EXTT9=
PLAYORDER=
